<svg width="77" height="77" viewBox="0 0 77 77" fill="none" xmlns="http://www.w3.org/2000/svg">
<rect x="0.957764" y="0.814941" width="76" height="76" rx="8" fill="#F0F5FF"/>
<g clip-path="url(#clip0_2727_9707)">
<mask id="path-2-inside-1_2727_9707" fill="white">
<path d="M60.6071 34.5965L54.1888 25.9785C53.8779 25.5543 53.4337 25.2864 52.9007 25.2194C52.3899 25.1301 51.8791 25.2864 51.4571 25.599L47.9038 28.2781C47.4818 28.5907 47.2153 29.0372 47.1487 29.5731C47.1487 29.6847 47.1487 29.774 47.1487 29.8856L46.5268 30.3098C46.2159 30.5108 45.8162 30.5778 45.4608 30.5108L39.2646 29.0819C38.3097 28.9256 37.3325 29.2382 36.644 29.908L35.4226 31.0913L31.7804 30.8234C31.4916 30.8234 31.2251 30.6894 30.9808 30.5108L30.6255 30.2205C30.9586 29.4168 30.7588 28.4568 30.0481 27.8986L26.4947 25.2194C26.0728 24.9068 25.562 24.7506 25.0512 24.8399C24.5404 24.9068 24.074 25.1748 23.7631 25.599L17.3448 34.217C16.7007 35.0877 16.8784 36.2933 17.7445 36.9408L21.2979 39.62C21.631 39.8656 22.0308 39.9995 22.4528 39.9995C22.5416 39.9995 22.6304 39.9995 22.7415 39.9995C23.2523 39.9326 23.7186 39.6646 24.0296 39.2404L24.3627 38.7939L25.251 39.4414C25.5397 39.6646 25.7396 39.9772 25.8062 40.3568L25.9617 41.2498C26.0728 41.875 26.3615 42.4555 26.8056 42.902C26.095 43.7504 26.1172 45.0007 26.8945 45.8044C27.161 46.0723 27.4719 46.2063 27.7828 46.3179C27.7828 46.3849 27.7384 46.4296 27.7384 46.4965C27.7384 47.077 27.9605 47.6129 28.3602 48.0147C28.7822 48.4389 29.3152 48.6399 29.8704 48.6399C29.8704 48.6399 29.8926 48.6399 29.9148 48.6399C30.0037 48.9971 30.1591 49.3543 30.4256 49.6223C30.8254 50.0241 31.3584 50.2474 31.9358 50.2474C32.0024 50.2474 32.0469 50.2251 32.1135 50.2251C32.2023 50.56 32.3578 50.8725 32.6243 51.1405C33.024 51.5423 33.557 51.7656 34.1345 51.7656C34.5342 51.7656 34.8896 51.6316 35.2227 51.4084L35.8667 52.0558C36.3553 52.547 36.9994 52.8149 37.6878 52.8149C38.3763 52.8149 39.0203 52.547 39.5089 52.0558C39.8421 51.7209 40.0419 51.2744 40.153 50.8056C40.3529 50.8502 40.5305 50.9172 40.7304 50.9172C41.3967 50.9172 42.0407 50.6716 42.5515 50.1581C42.8624 49.8455 43.0401 49.4883 43.1511 49.1087C43.4398 49.1981 43.7286 49.2874 44.0173 49.2874C44.6835 49.2874 45.3276 49.0418 45.8384 48.5283C46.1271 48.238 46.3048 47.9031 46.438 47.5236C46.7267 47.6352 47.0598 47.7022 47.3708 47.7022C48.0592 47.7022 48.7033 47.4566 49.2141 46.9654C49.7027 46.4742 49.9914 45.8044 49.9692 45.1123C49.9692 44.5095 49.7249 43.9513 49.3473 43.5048L51.2128 42.1875C51.657 41.875 52.0346 41.4508 52.2566 40.9596L52.6342 40.1782C52.7452 39.9326 52.9229 39.7316 53.145 39.5753L53.6336 39.2181L53.9223 39.62C54.2998 40.1335 54.8773 40.4014 55.4769 40.4014C55.8766 40.4014 56.2986 40.2675 56.6317 40.0219L60.1851 37.3427C61.0512 36.6952 61.2067 35.4673 60.5626 34.6189L60.6071 34.5965ZM22.6748 38.2358C22.6748 38.2358 22.3861 38.3697 22.2973 38.3027L18.7439 35.6236C18.6107 35.5342 18.5885 35.3556 18.6773 35.2217L25.0956 26.6037C25.0956 26.6037 25.2288 26.492 25.2732 26.492C25.2732 26.492 25.2955 26.492 25.3177 26.492C25.3621 26.492 25.4287 26.492 25.4953 26.559L29.0487 29.2382C29.182 29.3275 29.2042 29.5061 29.1153 29.6401L22.6971 38.2581L22.6748 38.2358ZM29.7372 43.5941L28.7156 44.6211C28.5379 44.7997 28.227 44.7997 28.0493 44.6211C27.8716 44.4425 27.8716 44.1299 28.0493 43.9513L29.0709 42.9243C29.2486 42.7457 29.5595 42.7457 29.7372 42.9243C29.826 43.0136 29.8704 43.1252 29.8704 43.2592C29.8704 43.3932 29.826 43.5048 29.7372 43.5941ZM29.404 46.4965C29.404 46.3626 29.4485 46.251 29.5373 46.1616L29.8926 45.8044L30.9142 44.7774L31.2696 44.4202C31.2696 44.4202 31.4694 44.2862 31.6027 44.2862C31.7359 44.2862 31.847 44.3309 31.9358 44.4202C32.0246 44.5095 32.0691 44.6211 32.0691 44.7551C32.0691 44.889 32.0246 45.0007 31.9358 45.09L31.6915 45.3356L30.4256 46.6082L30.1813 46.8538C30.0037 47.0324 29.6927 47.0324 29.5151 46.8538C29.4262 46.7645 29.3818 46.6528 29.3818 46.5189L29.404 46.4965ZM31.6249 48.4389C31.5361 48.3496 31.4916 48.238 31.4916 48.1041C31.4916 47.9701 31.5361 47.8585 31.6249 47.7692L32.8908 46.4965C32.8908 46.4965 33.1129 46.3626 33.2239 46.3626C33.3349 46.3626 33.4682 46.4072 33.557 46.4965C33.6459 46.5859 33.6903 46.6975 33.6903 46.8314C33.6903 46.9654 33.6459 47.077 33.557 47.1663L32.2911 48.4389C32.1135 48.6176 31.8026 48.6176 31.6249 48.4389ZM33.8013 49.9348C33.6237 49.7562 33.6237 49.4436 33.8013 49.265L34.3788 48.6845C34.3788 48.6845 34.6008 48.5506 34.7119 48.5506C34.8229 48.5506 34.9562 48.5952 35.045 48.6845C35.1338 48.7738 35.1783 48.8855 35.1783 49.0194C35.1783 49.1534 35.1338 49.265 35.045 49.3543L34.4676 49.9348C34.2899 50.1134 33.979 50.1134 33.8013 49.9348ZM48.037 45.7598C47.6151 46.1393 47.2153 46.251 46.7267 45.7598L45.8384 44.8667C45.8384 44.8667 45.8384 44.8667 45.8384 44.8444L44.0173 43.0136L42.2628 41.2498C41.9297 40.9149 41.4189 40.9149 41.0857 41.2498C40.9303 41.4061 40.8414 41.6294 40.8414 41.8526C40.8414 42.0759 40.9081 42.2768 41.0857 42.4555L42.9068 44.2862L44.6613 46.0723C44.9944 46.4296 44.9944 46.9877 44.6613 47.3226C44.3282 47.6575 43.7286 47.6575 43.3732 47.3226L42.5515 46.4965L39.8199 43.7504C39.4867 43.4155 38.9759 43.4155 38.6428 43.7504C38.4873 43.9067 38.3985 44.1299 38.3985 44.3532C38.3985 44.5765 38.4873 44.7774 38.6428 44.956L39.9975 46.2956L41.3967 47.7022C41.752 48.0594 41.752 48.6399 41.3967 48.9971C41.0413 49.3543 40.4639 49.3543 40.1086 48.9971L39.5311 48.4166L37.3769 46.251C37.0438 45.9161 36.533 45.9161 36.1999 46.251C35.8667 46.5859 35.8667 47.0994 36.1999 47.4343L38.3541 49.5999C38.5318 49.7785 38.6206 50.0018 38.6206 50.2474C38.6206 50.493 38.5318 50.7163 38.3541 50.8949C38.021 51.2298 37.4213 51.2298 37.066 50.8949L36.4441 50.2697C36.6884 49.9125 36.8661 49.5106 36.8661 49.0641C36.8661 48.4836 36.644 47.9478 36.2443 47.5459C35.9778 47.278 35.6668 47.144 35.3337 47.0324C35.3337 46.9654 35.3781 46.9207 35.3781 46.8538C35.3781 46.2733 35.1561 45.7374 34.7563 45.3356C34.4676 45.0453 34.1345 44.9114 33.7791 44.8221C33.7791 44.8221 33.7791 44.7997 33.7791 44.7774C33.7791 44.1969 33.557 43.6611 33.1573 43.2592C32.7131 42.8127 32.0913 42.6341 31.4694 42.6787C31.3806 42.3438 31.2251 42.0089 30.9586 41.7633C30.1591 40.9596 28.8044 40.9596 27.9827 41.7187C27.805 41.5177 27.6718 41.2722 27.6274 40.9819L27.4719 40.0888C27.3386 39.2851 26.9167 38.593 26.2504 38.1018L25.3621 37.4543L29.715 31.6048L29.9815 31.8057C30.47 32.1853 31.0475 32.4085 31.6693 32.4532L33.8457 32.6095L33.4682 32.989C33.0907 33.3463 32.7797 34.016 32.7131 34.5519C32.5132 36.4943 32.1357 37.9678 31.847 38.8609C31.6915 39.3297 31.8026 39.8433 32.1135 40.2228C32.4466 40.6247 32.9352 40.8256 33.446 40.7586C37.1548 40.3568 38.5095 37.8339 38.776 36.3157L39.2424 35.8468L43.5731 39.9772L48.037 44.4648C48.2147 44.6211 48.3035 44.8444 48.3035 45.09C48.3035 45.3356 48.2147 45.5812 48.0592 45.7374L48.037 45.7598ZM52.19 38.1911C51.7458 38.5037 51.3905 38.9279 51.1462 39.4191L50.7687 40.2005C50.6576 40.4461 50.48 40.647 50.2579 40.8033L48.1925 42.2545L44.7279 38.7939L39.7976 34.083C39.4645 33.7705 38.9537 33.7705 38.6428 34.083L37.3991 35.3333C37.2659 35.4673 37.177 35.6682 37.1548 35.8468C37.1548 35.9585 36.8661 38.5706 33.5126 39.0618C33.8013 38.0795 34.1567 36.5836 34.3565 34.7082C34.3565 34.5519 34.512 34.2616 34.6008 34.1723L37.8211 31.0466C38.132 30.7341 38.5762 30.6001 38.9759 30.6671L45.1277 32.0736C45.9272 32.2746 46.7933 32.096 47.4818 31.6494L47.8594 31.4038L52.6786 37.8562L52.2344 38.1688L52.19 38.1911ZM59.2301 35.9808L55.6768 38.66C55.5435 38.7493 55.3881 38.7269 55.277 38.6153L48.8587 29.9973C48.8587 29.9973 48.7921 29.841 48.8143 29.7963C48.8143 29.7517 48.8365 29.6847 48.9254 29.6177L52.4787 26.9386C52.4787 26.9386 52.5898 26.8716 52.6342 26.8716C52.6342 26.8716 52.6564 26.8716 52.6786 26.8716C52.723 26.8716 52.8119 26.8939 52.8563 26.9832L59.2745 35.6012C59.3634 35.7352 59.3412 35.8915 59.2079 36.0031L59.2301 35.9808Z"/>
</mask>
<path d="M60.6071 34.5965L54.1888 25.9785C53.8779 25.5543 53.4337 25.2864 52.9007 25.2194C52.3899 25.1301 51.8791 25.2864 51.4571 25.599L47.9038 28.2781C47.4818 28.5907 47.2153 29.0372 47.1487 29.5731C47.1487 29.6847 47.1487 29.774 47.1487 29.8856L46.5268 30.3098C46.2159 30.5108 45.8162 30.5778 45.4608 30.5108L39.2646 29.0819C38.3097 28.9256 37.3325 29.2382 36.644 29.908L35.4226 31.0913L31.7804 30.8234C31.4916 30.8234 31.2251 30.6894 30.9808 30.5108L30.6255 30.2205C30.9586 29.4168 30.7588 28.4568 30.0481 27.8986L26.4947 25.2194C26.0728 24.9068 25.562 24.7506 25.0512 24.8399C24.5404 24.9068 24.074 25.1748 23.7631 25.599L17.3448 34.217C16.7007 35.0877 16.8784 36.2933 17.7445 36.9408L21.2979 39.62C21.631 39.8656 22.0308 39.9995 22.4528 39.9995C22.5416 39.9995 22.6304 39.9995 22.7415 39.9995C23.2523 39.9326 23.7186 39.6646 24.0296 39.2404L24.3627 38.7939L25.251 39.4414C25.5397 39.6646 25.7396 39.9772 25.8062 40.3568L25.9617 41.2498C26.0728 41.875 26.3615 42.4555 26.8056 42.902C26.095 43.7504 26.1172 45.0007 26.8945 45.8044C27.161 46.0723 27.4719 46.2063 27.7828 46.3179C27.7828 46.3849 27.7384 46.4296 27.7384 46.4965C27.7384 47.077 27.9605 47.6129 28.3602 48.0147C28.7822 48.4389 29.3152 48.6399 29.8704 48.6399C29.8704 48.6399 29.8926 48.6399 29.9148 48.6399C30.0037 48.9971 30.1591 49.3543 30.4256 49.6223C30.8254 50.0241 31.3584 50.2474 31.9358 50.2474C32.0024 50.2474 32.0469 50.2251 32.1135 50.2251C32.2023 50.56 32.3578 50.8725 32.6243 51.1405C33.024 51.5423 33.557 51.7656 34.1345 51.7656C34.5342 51.7656 34.8896 51.6316 35.2227 51.4084L35.8667 52.0558C36.3553 52.547 36.9994 52.8149 37.6878 52.8149C38.3763 52.8149 39.0203 52.547 39.5089 52.0558C39.8421 51.7209 40.0419 51.2744 40.153 50.8056C40.3529 50.8502 40.5305 50.9172 40.7304 50.9172C41.3967 50.9172 42.0407 50.6716 42.5515 50.1581C42.8624 49.8455 43.0401 49.4883 43.1511 49.1087C43.4398 49.1981 43.7286 49.2874 44.0173 49.2874C44.6835 49.2874 45.3276 49.0418 45.8384 48.5283C46.1271 48.238 46.3048 47.9031 46.438 47.5236C46.7267 47.6352 47.0598 47.7022 47.3708 47.7022C48.0592 47.7022 48.7033 47.4566 49.2141 46.9654C49.7027 46.4742 49.9914 45.8044 49.9692 45.1123C49.9692 44.5095 49.7249 43.9513 49.3473 43.5048L51.2128 42.1875C51.657 41.875 52.0346 41.4508 52.2566 40.9596L52.6342 40.1782C52.7452 39.9326 52.9229 39.7316 53.145 39.5753L53.6336 39.2181L53.9223 39.62C54.2998 40.1335 54.8773 40.4014 55.4769 40.4014C55.8766 40.4014 56.2986 40.2675 56.6317 40.0219L60.1851 37.3427C61.0512 36.6952 61.2067 35.4673 60.5626 34.6189L60.6071 34.5965ZM22.6748 38.2358C22.6748 38.2358 22.3861 38.3697 22.2973 38.3027L18.7439 35.6236C18.6107 35.5342 18.5885 35.3556 18.6773 35.2217L25.0956 26.6037C25.0956 26.6037 25.2288 26.492 25.2732 26.492C25.2732 26.492 25.2955 26.492 25.3177 26.492C25.3621 26.492 25.4287 26.492 25.4953 26.559L29.0487 29.2382C29.182 29.3275 29.2042 29.5061 29.1153 29.6401L22.6971 38.2581L22.6748 38.2358ZM29.7372 43.5941L28.7156 44.6211C28.5379 44.7997 28.227 44.7997 28.0493 44.6211C27.8716 44.4425 27.8716 44.1299 28.0493 43.9513L29.0709 42.9243C29.2486 42.7457 29.5595 42.7457 29.7372 42.9243C29.826 43.0136 29.8704 43.1252 29.8704 43.2592C29.8704 43.3932 29.826 43.5048 29.7372 43.5941ZM29.404 46.4965C29.404 46.3626 29.4485 46.251 29.5373 46.1616L29.8926 45.8044L30.9142 44.7774L31.2696 44.4202C31.2696 44.4202 31.4694 44.2862 31.6027 44.2862C31.7359 44.2862 31.847 44.3309 31.9358 44.4202C32.0246 44.5095 32.0691 44.6211 32.0691 44.7551C32.0691 44.889 32.0246 45.0007 31.9358 45.09L31.6915 45.3356L30.4256 46.6082L30.1813 46.8538C30.0037 47.0324 29.6927 47.0324 29.5151 46.8538C29.4262 46.7645 29.3818 46.6528 29.3818 46.5189L29.404 46.4965ZM31.6249 48.4389C31.5361 48.3496 31.4916 48.238 31.4916 48.1041C31.4916 47.9701 31.5361 47.8585 31.6249 47.7692L32.8908 46.4965C32.8908 46.4965 33.1129 46.3626 33.2239 46.3626C33.3349 46.3626 33.4682 46.4072 33.557 46.4965C33.6459 46.5859 33.6903 46.6975 33.6903 46.8314C33.6903 46.9654 33.6459 47.077 33.557 47.1663L32.2911 48.4389C32.1135 48.6176 31.8026 48.6176 31.6249 48.4389ZM33.8013 49.9348C33.6237 49.7562 33.6237 49.4436 33.8013 49.265L34.3788 48.6845C34.3788 48.6845 34.6008 48.5506 34.7119 48.5506C34.8229 48.5506 34.9562 48.5952 35.045 48.6845C35.1338 48.7738 35.1783 48.8855 35.1783 49.0194C35.1783 49.1534 35.1338 49.265 35.045 49.3543L34.4676 49.9348C34.2899 50.1134 33.979 50.1134 33.8013 49.9348ZM48.037 45.7598C47.6151 46.1393 47.2153 46.251 46.7267 45.7598L45.8384 44.8667C45.8384 44.8667 45.8384 44.8667 45.8384 44.8444L44.0173 43.0136L42.2628 41.2498C41.9297 40.9149 41.4189 40.9149 41.0857 41.2498C40.9303 41.4061 40.8414 41.6294 40.8414 41.8526C40.8414 42.0759 40.9081 42.2768 41.0857 42.4555L42.9068 44.2862L44.6613 46.0723C44.9944 46.4296 44.9944 46.9877 44.6613 47.3226C44.3282 47.6575 43.7286 47.6575 43.3732 47.3226L42.5515 46.4965L39.8199 43.7504C39.4867 43.4155 38.9759 43.4155 38.6428 43.7504C38.4873 43.9067 38.3985 44.1299 38.3985 44.3532C38.3985 44.5765 38.4873 44.7774 38.6428 44.956L39.9975 46.2956L41.3967 47.7022C41.752 48.0594 41.752 48.6399 41.3967 48.9971C41.0413 49.3543 40.4639 49.3543 40.1086 48.9971L39.5311 48.4166L37.3769 46.251C37.0438 45.9161 36.533 45.9161 36.1999 46.251C35.8667 46.5859 35.8667 47.0994 36.1999 47.4343L38.3541 49.5999C38.5318 49.7785 38.6206 50.0018 38.6206 50.2474C38.6206 50.493 38.5318 50.7163 38.3541 50.8949C38.021 51.2298 37.4213 51.2298 37.066 50.8949L36.4441 50.2697C36.6884 49.9125 36.8661 49.5106 36.8661 49.0641C36.8661 48.4836 36.644 47.9478 36.2443 47.5459C35.9778 47.278 35.6668 47.144 35.3337 47.0324C35.3337 46.9654 35.3781 46.9207 35.3781 46.8538C35.3781 46.2733 35.1561 45.7374 34.7563 45.3356C34.4676 45.0453 34.1345 44.9114 33.7791 44.8221C33.7791 44.8221 33.7791 44.7997 33.7791 44.7774C33.7791 44.1969 33.557 43.6611 33.1573 43.2592C32.7131 42.8127 32.0913 42.6341 31.4694 42.6787C31.3806 42.3438 31.2251 42.0089 30.9586 41.7633C30.1591 40.9596 28.8044 40.9596 27.9827 41.7187C27.805 41.5177 27.6718 41.2722 27.6274 40.9819L27.4719 40.0888C27.3386 39.2851 26.9167 38.593 26.2504 38.1018L25.3621 37.4543L29.715 31.6048L29.9815 31.8057C30.47 32.1853 31.0475 32.4085 31.6693 32.4532L33.8457 32.6095L33.4682 32.989C33.0907 33.3463 32.7797 34.016 32.7131 34.5519C32.5132 36.4943 32.1357 37.9678 31.847 38.8609C31.6915 39.3297 31.8026 39.8433 32.1135 40.2228C32.4466 40.6247 32.9352 40.8256 33.446 40.7586C37.1548 40.3568 38.5095 37.8339 38.776 36.3157L39.2424 35.8468L43.5731 39.9772L48.037 44.4648C48.2147 44.6211 48.3035 44.8444 48.3035 45.09C48.3035 45.3356 48.2147 45.5812 48.0592 45.7374L48.037 45.7598ZM52.19 38.1911C51.7458 38.5037 51.3905 38.9279 51.1462 39.4191L50.7687 40.2005C50.6576 40.4461 50.48 40.647 50.2579 40.8033L48.1925 42.2545L44.7279 38.7939L39.7976 34.083C39.4645 33.7705 38.9537 33.7705 38.6428 34.083L37.3991 35.3333C37.2659 35.4673 37.177 35.6682 37.1548 35.8468C37.1548 35.9585 36.8661 38.5706 33.5126 39.0618C33.8013 38.0795 34.1567 36.5836 34.3565 34.7082C34.3565 34.5519 34.512 34.2616 34.6008 34.1723L37.8211 31.0466C38.132 30.7341 38.5762 30.6001 38.9759 30.6671L45.1277 32.0736C45.9272 32.2746 46.7933 32.096 47.4818 31.6494L47.8594 31.4038L52.6786 37.8562L52.2344 38.1688L52.19 38.1911ZM59.2301 35.9808L55.6768 38.66C55.5435 38.7493 55.3881 38.7269 55.277 38.6153L48.8587 29.9973C48.8587 29.9973 48.7921 29.841 48.8143 29.7963C48.8143 29.7517 48.8365 29.6847 48.9254 29.6177L52.4787 26.9386C52.4787 26.9386 52.5898 26.8716 52.6342 26.8716C52.6342 26.8716 52.6564 26.8716 52.6786 26.8716C52.723 26.8716 52.8119 26.8939 52.8563 26.9832L59.2745 35.6012C59.3634 35.7352 59.3412 35.8915 59.2079 36.0031L59.2301 35.9808Z" stroke="#003CFF" stroke-width="9.06627" mask="url(#path-2-inside-1_2727_9707)"/>
</g>
<defs>
<clipPath id="clip0_2727_9707">
<rect width="44" height="44" fill="white" transform="translate(16.9578 16.8149)"/>
</clipPath>
</defs>
</svg>
